{"title":"Rugby.Union.Gloucester.v.Worcester.2013.02.22.pdtv.x264","uid":8181138,"size":1122636478,"categoryP":"video","categoryS":"tv_shows","magnet":"?xt=urn:btih:75d5d53e0a492e6077fb0fb81a7716d99d4fc222&amp;dn=Rugby.Union.Gloucester.v.Worcester.2013.02.22.pdtv.x264&amp;tr=udp%3A%2F%2Ftracker.openbittorrent.com%3A80&amp;tr=udp%3A%2F%2Fopen.demonii.com%3A1337&amp;tr=udp%3A%2F%2Ftracker.coppersurfer.tk%3A6969&amp;tr=udp%3A%2F%2Fexodus.desync.com%3A6969","seeders":1,"leechers":0,"uploader":null,"files":3,"time":1361629176,"description":"SPORT: Aviva Premiership Rugby - Gloucester v Worcester\nDate: Friday 22nd February 2013 \nKO Time: 19:45 \n\nGloucester meet Worcester at Kingsholm. Gloucester's Freddie Burns kicked a last-minute penalty to tie the reverse fixture 16-16.\n\n\n\nGeneral\nComplete name: 2013.02.22.Gloucester.v.Worcester.pdtv.x264.mp4\nFormat: MPEG-4\nFormat profile: Base Media\nCodec ID: isom\nFile size: 1.05 GiB\nDuration: 1h 45mn\nOverall bit rate mode: Variable\nOverall bit rate: 1 412 Kbps\n\nVideo\nID: 1\nFormat: AVC\nFormat/Info: Advanced Video Codec\nFormat profile: &lt;a class=&quot;__cf_email__&quot; href=&quot;/cdn-cgi/l/email-protection&quot; data-cfemail=&quot;84ccede3ecc4c8b7aab5&quot;&gt;[email&amp;#160;protected]&lt;/a&gt;&lt;script cf-hash='f9e31' type=&quot;text/javascript&quot;&gt;\n/* &lt;![CDATA[ */!function(){try{var t=&quot;currentScript&quot;in document?document.currentScript:function(){for(var t=document.getElementsByTagName(&quot;script&quot;),e=t.length;e--;)if(t[e].getAttribute(&quot;cf-hash&quot;))return t[e]}();if(t&amp;&amp;t.previousSibling){var e,r,n,i,c=t.previousSibling,a=c.getAttribute(&quot;data-cfemail&quot;);if(a){for(e=&quot;&quot;,r=parseInt(a.substr(0,2),16),n=2;a.length-n;n+=2)i=parseInt(a.substr(n,2),16)^r,e+=String.fromCharCode(i);e=document.createTextNode(e),c.parentNode.replaceChild(e,c)}}}catch(u){}}();/* ]]&gt; */&lt;/script&gt;\nFormat settings, CABAC: Yes\nFormat settings, ReFrames: 8 frames\nCodec ID: avc1\nCodec ID/Info: Advanced Video Coding\nDuration: 1h 45mn\nBit rate: 1 280 Kbps\nMaximum bit rate: 3 718 Kbps\nWidth: 720 pixels\nHeight: 416 pixels\nDisplay aspect ratio: 1.731\nFrame rate mode: Constant\nFrame rate: 25.000 fps\nColor space: YUV\nChroma subsampling: 4:2:0\nBit depth: 8 bits\nScan type: Progressive\nBits/(Pixel*Frame): 0.171\nStream size: 970 MiB (91%)\nWriting library: x264 core 129 r2245 bc13772\n\nAudio\nID: 2\nFormat: AAC\nFormat/Info: Advanced Audio Codec\nFormat profile: LC\nCodec ID: 40\nDuration: 1h 45mn\nBit rate mode: Variable\nBit rate: 128 Kbps\nMaximum bit rate: 139 Kbps\nChannel(s): 2 channels\nChannel positions: Front: L R\nSampling rate: 48.0 KHz\nCompression mode: Lossy\nDelay relative to video: 80ms\nStream size: 97.0 MiB (9%)\nLanguage: English\n\n\n","torrent":{"xt":"urn:btih:75d5d53e0a492e6077fb0fb81a7716d99d4fc222","amp;dn":"Rugby.Union.Gloucester.v.Worcester.2013.02.22.pdtv.x264","amp;tr":["udp%3A%2F%2Ftracker.openbittorrent.com%3A80","udp%3A%2F%2Fopen.demonii.com%3A1337","udp%3A%2F%2Ftracker.coppersurfer.tk%3A6969","udp%3A%2F%2Fexodus.desync.com%3A6969"],"infoHash":"75d5d53e0a492e6077fb0fb81a7716d99d4fc222","infoHashBuffer":{"type":"Buffer","data":[117,213,213,62,10,73,46,96,119,251,15,184,26,119,22,217,157,79,194,34]},"announce":[],"urlList":[]}}